<svg xmlns="http://www.w3.org/2000/svg" version="1.1" xmlns:xlink="http://www.w3.org/1999/xlink" xmlns:svgjs="http://svgjs.dev/svgjs" width="150" height="211" viewBox="0 0 1500 2113"><g transform="matrix(1,0,0,1,-0.9580749253352678,-3.408064516129116)"><svg viewBox="0 0 176 248" data-background-color="#ffffff" preserveAspectRatio="xMidYMid meet" height="2113" width="1500" xmlns="http://www.w3.org/2000/svg" xmlns:xlink="http://www.w3.org/1999/xlink"><g id="tight-bounds" transform="matrix(1,0,0,1,0.1124141245726662,0.4000000000000057)"><svg viewBox="0 0 175.77517175085467 247.2" height="247.2" width="175.77517175085467"><g><svg viewBox="0 0 353.6358559882439 497.3329437231447" height="247.2" width="175.77517175085467"><g transform="matrix(1,0,0,1,0,250.13294372314473)"><svg viewBox="0 0 353.6358559882439 247.2" height="247.2" width="353.6358559882439"><g id="textblocktransform"><svg viewBox="0 0 353.6358559882439 247.2" height="247.2" width="353.6358559882439" id="textblock"><g><svg viewBox="0 0 353.6358559882439 247.2" height="247.2" width="353.6358559882439"><g transform="matrix(1,0,0,1,0,0)"><svg width="353.6358559882439" viewBox="3.64 -33.23 47.53 33.23" height="247.2" data-palette-color="#bb84e8"><path d="M23.22-33.23L23.22-33.23 33.98-33.23Q34.08-32.28 34.27-30.03 34.45-27.78 34.63-25.89 34.81-24 35.08-21.55 35.35-19.09 35.69-17.2 36.04-15.31 36.45-13.62L36.45-13.62Q37.33-10.06 38.67-10.06L38.67-10.06Q39.11-10.06 39.6-10.42L39.6-10.42Q37.77-6.84 35.55-1.61L35.55-1.61Q35.38-1.25 34.66-0.62 33.94 0 33.4 0L33.4 0 26.25 0Q25.71-7.13 24.23-16.14 22.75-25.15 21.07-31.64L21.07-31.64Q21.07-31.96 21.85-32.59 22.63-33.23 23.22-33.23ZM41.31-28.86L41.31-28.86 41.24-31.64Q41.24-31.96 42.03-32.59 42.82-33.23 43.41-33.23L43.41-33.23 51.17-33.23Q48.34-28.47 41.33-13.87L41.33-13.87Q41.16-13.48 40.45-12.88 39.75-12.28 39.18-12.28L39.18-12.28Q41.31-19.95 41.31-28.86ZM5.76-33.23L5.76-33.23 16.55-33.23Q17.94-19.68 19.3-14.87 20.65-10.06 22.05-10.06L22.05-10.06Q22.53-10.06 23-10.42L23-10.42Q21.44-7.35 18.95-1.61L18.95-1.61Q18.77-1.25 18.05-0.62 17.33 0 16.82 0L16.82 0 9.64 0Q8.64-7.37 6.95-16.42 5.25-25.46 3.64-31.64L3.64-31.64Q3.64-31.96 4.42-32.59 5.2-33.23 5.76-33.23Z" opacity="1" transform="matrix(1,0,0,1,0,0)" fill="#bb84e8" class="wordmark-text-0" data-fill-palette-color="primary" id="text-0"></path></svg></g></svg></g></svg></g></svg></g><g transform="matrix(1,0,0,1,80.93044973254959,0)"><svg viewBox="0 0 191.77495652314474 191.77495652314474" height="191.77495652314474" width="191.77495652314474"><g><svg></svg></g><g id="icon-0"><svg viewBox="0 0 191.77495652314474 191.77495652314474" height="191.77495652314474" width="191.77495652314474"><g><rect width="174.37315491271124" height="174.37315491271124" x="8.700900805216747" y="8.700900805216747" fill="#35185a" data-fill-palette-color="accent"></rect><rect width="174.37315491271124" height="174.37315491271124" x="-3.552713678800501e-15" y="17.4018016104335" fill="#35185a" opacity="0.5" data-fill-palette-color="accent"></rect></g><g transform="matrix(1,0,0,1,24.859716586333576,81.93559650393618)"><svg viewBox="0 0 142.05552335047759 27.90376351527238" height="27.90376351527238" width="142.05552335047759"><g><svg xmlns="http://www.w3.org/2000/svg" data-name="Your Icon" viewBox="22 39 56 11" x="0" y="0" height="27.90376351527238" width="142.05552335047759" class="icon-dxe-0" data-fill-palette-color="quaternary" id="dxe-0"><path d="M50.5 45H35.5A2.5 2.5 0 0 0 35.5 50H50.5A2.5 2.5 0 0 0 50.5 45" fill="#ffffff" data-fill-palette-color="quaternary"></path><path d="M75.5 45H60.5A2.5 2.5 0 0 0 60.5 50H75.5A2.5 2.5 0 0 0 75.5 45" fill="#ffffff" data-fill-palette-color="quaternary"></path><circle cx="25.5" cy="42.5" r="3.5" fill="#ffffff" data-fill-palette-color="quaternary"></circle></svg></g></svg></g></svg></g></svg></g><g></g></svg></g><defs></defs></svg><rect width="175.77517175085467" height="247.2" fill="none" stroke="none" visibility="hidden"></rect></g></svg></g></svg>